<svg width="154" height="37" viewBox="0 0 154 37" fill="none" xmlns="http://www.w3.org/2000/svg">
<path d="M21.06 29L21 17.87L15.6 26.93H12.96L7.59 18.17V29H2.1V8H6.99L14.37 20.12L21.57 8H26.46L26.52 29H21.06ZM49.293 24.92H40.413L38.763 29H32.703L41.973 8H47.823L57.123 29H50.943L49.293 24.92ZM47.553 20.54L44.853 13.82L42.153 20.54H47.553ZM63.307 8H69.247V29H63.307V8ZM85.353 29.42C83.653 29.42 82.003 29.21 80.403 28.79C78.803 28.37 77.503 27.81 76.503 27.11L78.453 22.73C79.393 23.35 80.483 23.85 81.723 24.23C82.963 24.61 84.183 24.8 85.383 24.8C87.663 24.8 88.803 24.23 88.803 23.09C88.803 22.49 88.473 22.05 87.813 21.77C87.173 21.47 86.133 21.16 84.693 20.84C83.113 20.5 81.793 20.14 80.733 19.76C79.673 19.36 78.763 18.73 78.003 17.87C77.243 17.01 76.863 15.85 76.863 14.39C76.863 13.11 77.213 11.96 77.913 10.94C78.613 9.9 79.653 9.08 81.033 8.48C82.433 7.88 84.143 7.58 86.163 7.58C87.543 7.58 88.903 7.74 90.243 8.06C91.583 8.36 92.763 8.81 93.783 9.41L91.953 13.82C89.953 12.74 88.013 12.2 86.133 12.2C84.953 12.2 84.093 12.38 83.553 12.74C83.013 13.08 82.743 13.53 82.743 14.09C82.743 14.65 83.063 15.07 83.703 15.35C84.343 15.63 85.373 15.92 86.793 16.22C88.393 16.56 89.713 16.93 90.753 17.33C91.813 17.71 92.723 18.33 93.483 19.19C94.263 20.03 94.653 21.18 94.653 22.64C94.653 23.9 94.303 25.04 93.603 26.06C92.903 27.08 91.853 27.9 90.453 28.52C89.053 29.12 87.353 29.42 85.353 29.42ZM112.487 29.42C110.267 29.42 108.267 28.95 106.487 28.01C104.727 27.07 103.337 25.77 102.317 24.11C101.317 22.45 100.817 20.58 100.817 18.5C100.817 16.42 101.317 14.55 102.317 12.89C103.337 11.23 104.727 9.93 106.487 8.99C108.267 8.05 110.267 7.58 112.487 7.58C114.707 7.58 116.697 8.05 118.457 8.99C120.237 9.93 121.627 11.23 122.627 12.89C123.647 14.55 124.157 16.42 124.157 18.5C124.157 20.58 123.647 22.45 122.627 24.11C121.627 25.77 120.237 27.07 118.457 28.01C116.697 28.95 114.707 29.42 112.487 29.42ZM112.487 24.5C113.547 24.5 114.507 24.25 115.367 23.75C116.227 23.25 116.907 22.55 117.407 21.65C117.907 20.73 118.157 19.68 118.157 18.5C118.157 17.32 117.907 16.28 117.407 15.38C116.907 14.46 116.227 13.75 115.367 13.25C114.507 12.75 113.547 12.5 112.487 12.5C111.427 12.5 110.467 12.75 109.607 13.25C108.747 13.75 108.067 14.46 107.567 15.38C107.067 16.28 106.817 17.32 106.817 18.5C106.817 19.68 107.067 20.73 107.567 21.65C108.067 22.55 108.747 23.25 109.607 23.75C110.467 24.25 111.427 24.5 112.487 24.5ZM151.748 8V29H146.858L137.588 17.81V29H131.768V8H136.658L145.928 19.19V8H151.748Z" fill="white"/>
<rect x="108.121" y="25.1421" width="3" height="17" transform="rotate(-135 108.121 25.1421)" fill="white"/>
</svg>
